<?xml version="1.0" encoding="UTF-8" standalone="no"?>
<!-- Created with Inkscape (http://www.inkscape.org/) -->
<svg id="svg5899" xmlns:rdf="http://www.w3.org/1999/02/22-rdf-syntax-ns#" xmlns="http://www.w3.org/2000/svg" viewBox="0 0 88.037 68.975" version="1.1" xmlns:cc="http://creativecommons.org/ns#" xmlns:dc="http://purl.org/dc/elements/1.1/">
 <metadata id="metadata5904">
  <rdf:RDF>
   <cc:Work rdf:about="">
    <dc:format>image/svg+xml</dc:format>
    <dc:type rdf:resource="http://purl.org/dc/dcmitype/StillImage"/>
    <dc:title/>
   </cc:Work>
  </rdf:RDF>
 </metadata>
 <g id="layer1" transform="translate(-333.12797,-349.30368)">
  <g id="book-8" transform="translate(-534.60902,208.68292)">
   <path id="path5106-8-64-6-5" d="m910.76,151,45.017,14.554-30.463,41.294-46.71-19.632z" fill="#726864"/>
   <path id="path5106-3-1-4" stroke-linejoin="round" d="m903.14,151.94-0.006-10.581-32.672,35.77c-3.5908,5.0409-2.4463,9.3709,0.59206,12.202z" stroke="#000" stroke-linecap="butt" stroke-width="1px" fill="#d23c08"/>
   <path id="path5106-8-64-3" stroke-linejoin="round" d="M903.4,153.25,948.42,167.8,917.96,209.09,871.25,189.46z" stroke="#000" stroke-linecap="butt" stroke-width="1px" fill="#d23c08"/>
   <path id="path5138-1-3" d="m873.21,176.48,43.848,15.234c0.39063,1.6602-2.6367,9.2774,0.19531,13.672l-43.75-17.871c-5.179-3.936-3.1242-8.6873-0.29297-11.035z" stroke="#626d5d" stroke-miterlimit="4" stroke-dasharray="none" stroke-width="0.5" fill="#FFF"/>
   <path id="path5140-9-8" d="m917.16,195.43,27.637-39.062c-1.5625,3.6133-1.6602,7.0312,0.0977,11.035l-27.637,37.793c-1.2695-3.418-0.87895-7.9102-0.0977-9.7656z" stroke="#626d5d" stroke-miterlimit="4" stroke-dasharray="none" stroke-width="0.5" fill="#FFF"/>
   <path id="path5106-3-5" stroke-linejoin="round" d="m902.33,141.12,45.017,14.554-30.463,41.294-46.71-19.632z" stroke="#000" stroke-linecap="butt" stroke-width="1px" fill="#d23c08"/>
   <path id="path5701-0" stroke-linejoin="miter" d="M944.65,166.68,929.87,186.71" fill-opacity="0" stroke="#626d5d" stroke-linecap="butt" stroke-miterlimit="4" stroke-dasharray="none" stroke-width="0.2"/>
   <path id="path5701-8-7" stroke-linejoin="miter" d="M941.27,170.69,926.49,190.71" fill-opacity="0" stroke="#626d5d" stroke-linecap="butt" stroke-miterlimit="4" stroke-dasharray="none" stroke-width="0.2"/>
   <path id="path5701-5-6" stroke-linejoin="miter" d="m943.55,165.16-14.777,20.025" fill-opacity="0" stroke="#626d5d" stroke-linecap="butt" stroke-miterlimit="4" stroke-dasharray="none" stroke-width="0.2"/>
   <path id="path5728-47" stroke-linejoin="miter" d="m875.32,185.33,36.46,14.639" stroke="#626d5d" stroke-linecap="butt" stroke-miterlimit="4" stroke-dasharray="none" stroke-width="0.2" fill="none"/>
   <path id="path5728-4-3" stroke-linejoin="miter" d="m871.32,185.19,36.46,14.639" stroke="#626d5d" stroke-linecap="butt" stroke-miterlimit="4" stroke-dasharray="none" stroke-width="0.2" fill="none"/>
   <path id="path5728-4-8-2" stroke-linejoin="miter" d="m879.33,184.5,36.46,14.639" stroke="#626d5d" stroke-linecap="butt" stroke-miterlimit="4" stroke-dasharray="none" stroke-width="0.2" fill="none"/>
  </g>
 </g>
</svg>
