<?xml version="1.0" encoding="UTF-8" standalone="no"?>
<!-- Created with Inkscape (http://www.inkscape.org/) -->
<svg id="svg4071" xmlns:rdf="http://www.w3.org/1999/02/22-rdf-syntax-ns#" xmlns="http://www.w3.org/2000/svg" viewBox="0 0 226.44 226.44" version="1.1" xmlns:cc="http://creativecommons.org/ns#" xmlns:dc="http://purl.org/dc/elements/1.1/">
 <metadata id="metadata4076">
  <rdf:RDF>
   <cc:Work rdf:about="">
    <dc:format>image/svg+xml</dc:format>
    <dc:type rdf:resource="http://purl.org/dc/dcmitype/StillImage"/>
    <dc:title/>
   </cc:Work>
  </rdf:RDF>
 </metadata>
 <g id="layer1" transform="translate(-292.5,-336.28125)">
  <rect id="rect4869-8-5-8" stroke-linejoin="round" stroke-dasharray="none" stroke-dashoffset="0" ry="15.714" height="216.43" width="216.43" stroke="#6fa2b3" stroke-linecap="round" stroke-miterlimit="4" y="341.29" x="297.5" stroke-width="10" fill="none"/>
  <path id="path4038" fill="#46697c" d="m387.35,451.12,76.972-90.19,20.215,7.775-81.637,94.855s21.77,44.317,72.307,31.877l3.8875,12.44c-58.312,27.99-91.745-18.66-91.745-18.66s-36.542,28.767-43.54,47.427l-11.662-16.327,6.9975-19.437,36.542-27.99s-48.535-52.824-30.322-65.31,30.322,37.32,41.985,43.54z"/>
  <path id="path4038-7" d="m390.44,466.84,76.972-90.19,20.215,7.775-81.637,94.855s21.77,44.317,72.307,31.877l3.8875,12.44c-58.312,27.99-91.745-18.66-91.745-18.66s-36.542,28.767-43.54,47.427l-11.662-16.327,6.9975-19.437,36.542-27.99s-48.535-52.824-30.322-65.31,30.322,37.32,41.985,43.54z" fill-opacity="0.16078431" fill="#3e5764"/>
 </g>
</svg>
