<?xml version="1.0" encoding="UTF-8" standalone="no"?>
<!-- Created with Inkscape (http://www.inkscape.org/) -->
<svg id="svg5994" xmlns:rdf="http://www.w3.org/1999/02/22-rdf-syntax-ns#" xmlns="http://www.w3.org/2000/svg" viewBox="0 0 200 200" version="1.1" xmlns:cc="http://creativecommons.org/ns#" xmlns:dc="http://purl.org/dc/elements/1.1/">
 <metadata id="metadata5999">
  <rdf:RDF>
   <cc:Work rdf:about="">
    <dc:format>image/svg+xml</dc:format>
    <dc:type rdf:resource="http://purl.org/dc/dcmitype/StillImage"/>
    <dc:title/>
   </cc:Work>
  </rdf:RDF>
 </metadata>
 <g id="layer1" transform="translate(-121.76521,-313.47304)">
  <path id="path5950" stroke-linejoin="round" d="m-473.76,736.52c0,91.974-74.56,166.53-166.53,166.53-91.974,0-166.53-74.56-166.53-166.53,0-91.974,74.56-166.53,166.53-166.53,91.974,0,166.53,74.56,166.53,166.53z" fill-rule="nonzero" transform="matrix(0.5470512,0,0,0.5470512,572.7725,11.232067)" stroke-dashoffset="0" stroke="#000" stroke-linecap="round" stroke-miterlimit="4" stroke-dasharray="none" stroke-width="20.09831047" fill="#FFF"/>
  <path id="path5952" stroke-linejoin="round" d="m-1131.3,472.37c0,45.987-37.28,83.267-83.267,83.267s-83.267-37.28-83.267-83.267,37.28-83.267,83.267-83.267,83.267,37.28,83.267,83.267z" fill-rule="nonzero" transform="matrix(0.5470512,0,0,0.5470512,886.91829,155.7391)" stroke-dashoffset="0" stroke="#000" stroke-linecap="round" stroke-miterlimit="4" stroke-dasharray="none" stroke-width="12" fill="#FFF"/>
  <path id="path5954" stroke-linejoin="miter" d="m152.41,414.15,137.44,0" stroke="#000" stroke-linecap="butt" stroke-miterlimit="4" stroke-dasharray="none" stroke-width="4.37640953" fill="#FFF"/>
  <path id="path5954-2" stroke-linejoin="miter" d="m222.5,343.32,0,142.15" stroke="#000" stroke-linecap="butt" stroke-miterlimit="4" stroke-dasharray="none" stroke-width="4.37640953" fill="#FFF"/>
  <path id="path5974" d="m-372.55,593.68c0,21.011-17.033,38.044-38.044,38.044s-38.044-17.033-38.044-38.044,17.033-38.044,38.044-38.044,38.044,17.033,38.044,38.044z" fill-rule="nonzero" transform="matrix(0.68714723,0,0,0.68714723,504.63635,6.2039229)" fill="#FFF"/>
  <path id="path5976" d="m-619.48,733.65c0,12.29-9.9627,22.252-22.252,22.252-12.29,0-22.252-9.9627-22.252-22.252,0-12.29,9.9627-22.252,22.252-22.252,12.29,0,22.252,9.9627,22.252,22.252z" fill-rule="nonzero" transform="matrix(0.38381818,0,0,0.38381818,468.80672,132.55899)" fill="#000"/>
 </g>
</svg>
