<?xml version="1.0" encoding="UTF-8" standalone="no"?>
<!-- Created with Inkscape (http://www.inkscape.org/) -->
<svg id="svg3909" xmlns:rdf="http://www.w3.org/1999/02/22-rdf-syntax-ns#" xmlns="http://www.w3.org/2000/svg" viewBox="0 0 226.44 226.41" version="1.1" xmlns:cc="http://creativecommons.org/ns#" xmlns:dc="http://purl.org/dc/elements/1.1/">
 <metadata id="metadata3914">
  <rdf:RDF>
   <cc:Work rdf:about="">
    <dc:format>image/svg+xml</dc:format>
    <dc:type rdf:resource="http://purl.org/dc/dcmitype/StillImage"/>
    <dc:title/>
   </cc:Work>
  </rdf:RDF>
 </metadata>
 <g id="layer1" transform="translate(-155.34375,-459.15625)">
  <path id="path3826" fill="#486c81" d="m224.02,484.62c-2.4691,0.483-4.8654,1.1715-7.1925,2.0143l1.5551,12.912c-2.7623,1.2316-5.3587,2.79-7.7368,4.6328l-10.031-7.8355c-1.8847,1.6847-3.6432,3.5048-5.268,5.4587l7.5813,10.374c-1.7785,2.4642-3.2824,5.1545-4.471,8.0168l-12.48-1.6114c-0.8122,2.4084-1.4586,4.8977-1.9245,7.4528l11.586,5.076c-0.17194,1.5203-0.27215,3.0647-0.27215,4.6328,0,1.5682,0.10021,3.1125,0.27215,4.6328l-11.586,5.076c0.465,2.5556,1.1131,5.0439,1.9245,7.4528l12.48-1.5913c1.1876,2.856,2.696,5.5373,4.471,7.9967,0.003,0.005-0.003,0.016,0,0.0201l-7.5618,10.374c1.6213,1.9481,3.3688,3.7784,5.2486,5.4587l10.031-7.8557c2.3781,1.8428,4.9745,3.4012,7.7368,4.6328l-1.5551,12.932c2.3271,0.84275,4.7234,1.5111,7.1925,1.9941l4.8987-12.005c1.4672,0.17817,2.9576,0.282,4.471,0.282s3.0038-0.10383,4.471-0.282l4.8987,12.005c2.4691-0.483,4.8654-1.1514,7.1925-1.9941l-1.5551-12.932c2.7623-1.2316,5.3587-2.79,7.7368-4.6328l10.031,7.8557c1.8812-1.6816,3.6456-3.5089,5.268-5.4587l-7.5813-10.394c1.775-2.4593,3.2835-5.1407,4.471-7.9967l12.48,1.5913c0.81142-2.4089,1.4595-4.8972,1.9245-7.4528l-11.586-5.076c0.17195-1.5203,0.27215-3.0647,0.27215-4.6328,0-1.5682-0.1002-3.1125-0.27215-4.6328l11.586-5.076c-0.46591-2.5551-1.1123-5.0445-1.9245-7.4528l-12.48,1.6114c-1.1886-2.8623-2.6925-5.5526-4.471-8.0168l7.5813-10.394c-1.6209-1.9474-3.3888-3.7587-5.268-5.4386l-10.031,7.8355c-2.3781-1.8428-4.9745-3.4012-7.7368-4.6328l1.5551-12.912c-2.3271-0.84274-4.7234-1.5313-7.1925-2.0143l-4.8987,12.005c-1.4672-0.17817-2.9576-0.282-4.471-0.282s-3.0038,0.10383-4.471,0.282l-4.8987-12.005zm9.3697,25.682c13.558,0,24.552,11.392,24.552,25.44,0,14.049-10.994,25.44-24.552,25.44s-24.552-11.392-24.552-25.44c0-14.049,10.994-25.44,24.552-25.44z"/>
  <rect id="rect4869-8-5" stroke-linejoin="round" stroke-dasharray="none" stroke-dashoffset="0" ry="15.714" height="216.43" width="216.43" stroke="#6fa2b3" stroke-linecap="round" stroke-miterlimit="4" y="464.15" x="160.36" stroke-width="10" fill="none"/>
  <path id="path3826-5" fill="#486c81" d="m303.42,551.5c-2.515-0.0665-5.0038,0.0835-7.4586,0.399l-1.295,12.94c-2.9643,0.6003-5.8378,1.5556-8.5602,2.8361l-8.0827-9.8325c-2.2064,1.2336-4.3192,2.627-6.3307,4.1799l5.1393,11.776c-2.2726,2.0176-4.3265,4.3156-6.1101,6.8502l-11.829-4.2915c-1.3174,2.1736-2.4905,4.4623-3.5019,6.8546l10.202,7.478c-0.49901,1.4463-0.93326,2.9318-1.2749,4.4623-0.34162,1.5305-0.58026,3.0596-0.74365,4.5808l-12.413,2.4301c-0.10291,2.5955-0.0125,5.1653,0.25464,7.6931l12.527,1.1657c0.53685,3.0461,1.425,5.9917,2.6215,8.7786,0.002,0.006-0.006,0.015-0.004,0.0196l-9.6401,8.477c1.158,2.2545,2.4648,4.4215,3.9333,6.4709l11.501-5.4818c1.9195,2.3166,4.114,4.4032,6.5417,6.207l-4.335,12.282c2.0876,1.3295,4.2807,2.5038,6.5853,3.5131l7.3963-10.65c1.3931,0.4936,2.8252,0.9196,4.3022,1.2493s2.9543,0.5531,4.4251,0.6988l2.1657,12.784c2.515,0.067,4.9994-0.064,7.4542-0.3793l1.2994-12.96c2.9643-0.6003,5.8378-1.5556,8.5602-2.8361l8.0783,9.8522c2.2024-1.2314,4.3225-2.6304,6.3307-4.1799l-5.1349-11.796c2.2681-2.0136,4.3245-4.3019,6.1057-6.8306l11.834,4.2718c1.3167-2.1743,2.4913-4.4616,3.5019-6.8546l-10.202-7.478c0.49902-1.4463,0.93326-2.9318,1.2749-4.4623,0.34163-1.5305,0.58028-3.0596,0.74366-4.5809l12.413-2.4301c0.10192-2.5953,0.0134-5.1656-0.25465-7.6931l-12.531-1.146c-0.53653-3.0525-1.4182-6.0058-2.6172-8.7983l9.6635-8.4924c-1.1578-2.2538-2.4885-4.4067-3.9567-6.4556l-11.497,5.4622c-1.9195-2.3167-4.114-4.4032-6.5417-6.207l4.3306-12.263c-2.0876-1.3295-4.2764-2.5235-6.5809-3.5328l-7.3963,10.65c-1.3932-0.49353-2.8252-0.91956-4.3022-1.2492-1.477-0.32969-2.9543-0.55305-4.4251-0.69879l-2.1657-12.784zm3.5498,27.106c13.232,2.9536,21.48,16.467,18.42,30.178-3.0605,13.711-16.272,22.434-29.504,19.481-13.232-2.9536-21.48-16.467-18.42-30.178,3.0605-13.711,16.272-22.434,29.504-19.481z"/>
  <path id="path3826-1" fill-opacity="0.16078431" fill="#3e5764" d="m216.84,490.19c-2.4691,0.483-4.8654,1.1715-7.1925,2.0143l1.5551,12.912c-2.7623,1.2316-5.3587,2.79-7.7368,4.6328l-10.031-7.8355c-1.8847,1.6847-3.6432,3.5048-5.268,5.4587l7.5813,10.374c-1.7785,2.4642-3.2824,5.1545-4.471,8.0168l-12.48-1.6114c-0.8122,2.4084-1.4586,4.8977-1.9245,7.4528l11.586,5.076c-0.17194,1.5203-0.27215,3.0647-0.27215,4.6328,0,1.5682,0.10021,3.1125,0.27215,4.6328l-11.586,5.076c0.465,2.5556,1.1131,5.0439,1.9245,7.4528l12.48-1.5913c1.1876,2.856,2.696,5.5373,4.471,7.9967,0.003,0.005-0.003,0.016,0,0.0201l-7.5618,10.374c1.6213,1.9481,3.3688,3.7784,5.2486,5.4587l10.031-7.8557c2.3781,1.8428,4.9745,3.4012,7.7368,4.6328l-1.5551,12.932c2.3271,0.84275,4.7234,1.5111,7.1925,1.9941l4.8987-12.005c1.4672,0.17817,2.9576,0.282,4.471,0.282s3.0038-0.10383,4.471-0.282l4.8987,12.005c2.4691-0.483,4.8654-1.1514,7.1925-1.9941l-1.5551-12.932c2.7623-1.2316,5.3587-2.79,7.7368-4.6328l10.031,7.8557c1.8812-1.6816,3.6456-3.5089,5.268-5.4587l-7.5813-10.394c1.775-2.4593,3.2835-5.1407,4.471-7.9967l12.48,1.5913c0.81142-2.4089,1.4595-4.8972,1.9245-7.4528l-11.586-5.076c0.17195-1.5203,0.27215-3.0647,0.27215-4.6328,0-1.5682-0.1002-3.1125-0.27215-4.6328l11.586-5.076c-0.46591-2.5551-1.1123-5.0445-1.9245-7.4528l-12.48,1.6114c-1.1886-2.8623-2.6925-5.5526-4.471-8.0168l7.5813-10.394c-1.6209-1.9474-3.3888-3.7587-5.268-5.4386l-10.031,7.8355c-2.3781-1.8428-4.9745-3.4012-7.7368-4.6328l1.5551-12.912c-2.3271-0.84274-4.7234-1.5313-7.1925-2.0143l-4.8987,12.005c-1.4672-0.17817-2.9576-0.282-4.471-0.282s-3.0038,0.10383-4.471,0.282l-4.8987-12.005zm9.3697,25.682c13.558,0,24.552,11.392,24.552,25.44,0,14.049-10.994,25.44-24.552,25.44s-24.552-11.392-24.552-25.44c0-14.049,10.994-25.44,24.552-25.44z"/>
  <path id="path3826-5-0" fill-opacity="0.16078431" fill="#3e5764" d="m296.24,557.07c-2.515-0.0665-5.0038,0.0835-7.4586,0.399l-1.295,12.94c-2.9643,0.6003-5.8378,1.5556-8.5602,2.8361l-8.0827-9.8325c-2.2064,1.2336-4.3192,2.627-6.3307,4.1799l5.1393,11.776c-2.2726,2.0176-4.3265,4.3156-6.1101,6.8502l-11.829-4.2915c-1.3174,2.1736-2.4905,4.4623-3.5019,6.8546l10.202,7.478c-0.49901,1.4463-0.93326,2.9318-1.2749,4.4623-0.34162,1.5305-0.58026,3.0596-0.74365,4.5808l-12.413,2.4301c-0.10291,2.5955-0.0125,5.1653,0.25464,7.6931l12.527,1.1657c0.53685,3.0461,1.425,5.9917,2.6215,8.7786,0.002,0.006-0.006,0.015-0.004,0.0196l-9.6401,8.477c1.158,2.2545,2.4648,4.4215,3.9333,6.4709l11.501-5.4817c1.9195,2.3166,4.114,4.4031,6.5417,6.207l-4.335,12.282c2.0876,1.3295,4.2807,2.5038,6.5853,3.5131l7.3963-10.65c1.3931,0.4936,2.8252,0.9196,4.3022,1.2493s2.9543,0.5531,4.4251,0.6988l2.1657,12.784c2.515,0.067,4.9994-0.064,7.4542-0.3793l1.2994-12.96c2.9643-0.6003,5.8378-1.5556,8.5602-2.8361l8.0783,9.8522c2.2024-1.2314,4.3225-2.6304,6.3307-4.1799l-5.1349-11.796c2.2681-2.0136,4.3245-4.3019,6.1057-6.8306l11.834,4.2719c1.3167-2.1743,2.4913-4.4617,3.5019-6.8546l-10.202-7.478c0.49902-1.4463,0.93326-2.9318,1.2749-4.4623,0.34163-1.5305,0.58028-3.0596,0.74366-4.5809l12.413-2.4301c0.10192-2.5953,0.0134-5.1656-0.25465-7.6931l-12.531-1.146c-0.53653-3.0525-1.4182-6.0058-2.6172-8.7983l9.6635-8.4924c-1.1578-2.2538-2.4885-4.4067-3.9567-6.4556l-11.497,5.4622c-1.9195-2.3167-4.114-4.4032-6.5417-6.207l4.3306-12.263c-2.0876-1.3295-4.2764-2.5235-6.5809-3.5328l-7.3963,10.65c-1.3932-0.49353-2.8252-0.91956-4.3022-1.2492-1.477-0.32969-2.9543-0.55305-4.4251-0.69879l-2.1657-12.784zm3.5498,27.106c13.232,2.9536,21.48,16.467,18.42,30.178-3.0605,13.711-16.272,22.434-29.504,19.481-13.232-2.9537-21.48-16.467-18.42-30.178,3.0605-13.711,16.272-22.434,29.504-19.481z"/>
 </g>
</svg>
