<?xml version="1.0" encoding="UTF-8" standalone="no"?>
<!-- Created with Inkscape (http://www.inkscape.org/) -->
<svg id="svg3034" xmlns:rdf="http://www.w3.org/1999/02/22-rdf-syntax-ns#" xmlns="http://www.w3.org/2000/svg" viewBox="0 0 226.41 226.41" version="1.1" xmlns:cc="http://creativecommons.org/ns#" xmlns:dc="http://purl.org/dc/elements/1.1/">
 <metadata id="metadata3039">
  <rdf:RDF>
   <cc:Work rdf:about="">
    <dc:format>image/svg+xml</dc:format>
    <dc:type rdf:resource="http://purl.org/dc/dcmitype/StillImage"/>
    <dc:title/>
   </cc:Work>
  </rdf:RDF>
 </metadata>
 <g id="layer1" stroke-linejoin="round" transform="translate(-109.65625,-324.875)" stroke-miterlimit="4" stroke-dasharray="none" stroke-width="10" fill="none">
  <path id="path3164-4-5" opacity="0.22222224" d="m200.93,527.44,0.35714-20c-11.429-2.5-15-13.571-17.5-18.929-18.214-16.071-41.417-24.01-29.286-40.714,12.424-17.108,37.143,9.6429,37.143,9.6429-13.929-41.786-36.865-71.283-13.929-78.929,20.382-6.7939,9.2563,19.518,38.214,55.357-2.1014-31.2-17.823-73.162,2.5-74.286,22.519-1.2454,8.9286,33.929,20.357,68.929,10-34.286,5.8572-57.751,25-54.286,19.8,3.5848-1.0714,25-2.5,60.357,16.429-26.786,21.974-38.927,35-31.429,17.896,10.302-11.071,32.143-23.214,63.929,1.0714,20-13.571,40.714-13.571,40.714v20z" stroke="#3e5666" stroke-linecap="butt"/>
  <path id="path3164-5" d="m195.57,522.8,0.35714-20c-11.429-2.5-15-13.571-17.5-18.929-18.214-16.071-41.417-24.01-29.286-40.714,12.424-17.108,37.143,9.6429,37.143,9.6429-13.929-41.786-36.865-71.283-13.929-78.929,20.382-6.7939,9.2563,19.518,38.214,55.357-2.1014-31.2-17.823-73.162,2.5-74.286,22.519-1.2454,8.9286,33.929,20.357,68.929,10-34.286,5.8572-57.751,25-54.286,19.8,3.5848-1.0714,25-2.5,60.357,16.429-26.786,21.974-38.927,35-31.429,17.896,10.302-11.071,32.143-23.214,63.929,1.0714,20-13.571,40.714-13.571,40.714v20z" stroke="#4a7086" stroke-linecap="butt"/>
  <rect id="rect4869-4" stroke-dashoffset="0" ry="15.714" height="216.43" width="216.43" stroke="#6fa2b3" stroke-linecap="round" y="329.86" x="114.64"/>
 </g>
</svg>
