<?xml version="1.0" encoding="UTF-8" standalone="no"?>
<!-- Created with Inkscape (http://www.inkscape.org/) -->
<svg id="svg5404" xmlns:rdf="http://www.w3.org/1999/02/22-rdf-syntax-ns#" xmlns="http://www.w3.org/2000/svg" viewBox="0 0 193.48 193.48" version="1.1" xmlns:cc="http://creativecommons.org/ns#" xmlns:dc="http://purl.org/dc/elements/1.1/">
 <metadata id="metadata5409">
  <rdf:RDF>
   <cc:Work rdf:about="">
    <dc:format>image/svg+xml</dc:format>
    <dc:type rdf:resource="http://purl.org/dc/dcmitype/StillImage"/>
    <dc:title/>
   </cc:Work>
  </rdf:RDF>
 </metadata>
 <g id="layer1" transform="translate(-327.71385,-289.83093)">
  <path id="path5386" stroke-linejoin="round" d="m-433.56,332.75c0,53.321-43.225,96.546-96.546,96.546s-96.546-43.225-96.546-96.546,43.225-96.546,96.546-96.546,96.546,43.225,96.546,96.546z" transform="matrix(0.94335848,0,0,0.94335848,924.53275,72.664731)" stroke-dashoffset="0" stroke="#000" stroke-linecap="round" stroke-miterlimit="4" stroke-dasharray="none" stroke-width="11.99968052" fill="#FFF"/>
  <g id="flowRoot5378" style="writing-mode:lr-tb;letter-spacing:0px;text-anchor:start;word-spacing:0px;text-align:start;" line-height="125%" transform="matrix(1.3512156,0,0,1.3512156,1525.1073,-86.311562)" font-stretch="normal" font-size="14px" font-variant="normal" font-family="URW Gothic L" font-style="normal" fill="#000">
   <path id="path5389" d="m-801.67,297.65c15.891,0.79698,25.453,4.8517,28.688,12.164l0.70312,4.0078v1.4062c-0.00008,12.375-10.57,23.156-31.711,32.344-14.156,4.2188-21.469,6.8204-21.938,7.8047v0.35156c-0.00002,6.0469-1.0078,9.75-3.0234,11.109-1.6406,0.89066-3.4453,1.336-5.4141,1.3359-5.625,0.00003-8.4375-2.8125-8.4375-8.4375,0-6,2.4609-11.273,7.3828-15.82l26.367-7.4531c14.859-6.6562,22.289-12.609,22.289-17.859-0.84382-3.3749-4.0079-5.0624-9.4922-5.0625h-6.75c-11.016,0.00009-24.516,4.1485-40.5,12.445-3.2344,0.00007-5.3672-3.1406-6.3984-9.4219,0.46875-4.9687,1.9219-7.453,4.3594-7.4531,19.453-7.6405,34.078-11.461,43.875-11.461m-34.734,85.711c4.7344,0.00002,7.664,3.0469,8.7891,9.1406-1.125,5.3906-3.6094,8.0859-7.4531,8.0859h-0.35156c-6.2813-0.84375-9.4219-3.6562-9.4219-8.4375,1.0781-5.8594,3.8906-8.789,8.4375-8.7891"/>
  </g>
 </g>
</svg>
