<?xml version="1.0" encoding="UTF-8" standalone="no"?>
<!-- Created with Inkscape (http://www.inkscape.org/) -->
<svg id="svg3937" xmlns:rdf="http://www.w3.org/1999/02/22-rdf-syntax-ns#" xmlns="http://www.w3.org/2000/svg" viewBox="0 0 226.41 226.41" version="1.1" xmlns:cc="http://creativecommons.org/ns#" xmlns:dc="http://purl.org/dc/elements/1.1/">
 <metadata id="metadata3942">
  <rdf:RDF>
   <cc:Work rdf:about="">
    <dc:format>image/svg+xml</dc:format>
    <dc:type rdf:resource="http://purl.org/dc/dcmitype/StillImage"/>
    <dc:title/>
   </cc:Work>
  </rdf:RDF>
 </metadata>
 <g id="layer1" transform="translate(-263.9375,-219.15625)">
  <rect id="rect4869-8" stroke-linejoin="round" stroke-dasharray="none" stroke-dashoffset="0" ry="15.714" height="216.43" width="216.43" stroke="#6fa2b3" stroke-linecap="round" stroke-miterlimit="4" y="224.15" x="268.93" stroke-width="10" fill="none"/>
  <path id="path3033" d="m158.59,655.62c0,26.918-21.822,48.74-48.74,48.74s-48.74-21.822-48.74-48.74,21.822-48.74,48.74-48.74,48.74,21.822,48.74,48.74z" transform="translate(243.7549,-347.97968)" stroke="#496f84" stroke-dasharray="none" stroke-miterlimit="4" stroke-width="20" fill="none"/>
  <path id="path3033-3" d="m158.59,655.62c0,26.918-21.822,48.74-48.74,48.74s-48.74-21.822-48.74-48.74,21.822-48.74,48.74-48.74,48.74,21.822,48.74,48.74z" stroke-opacity="0.16078431" transform="translate(233.80874,-342.38051)" stroke="#3e5764" stroke-dasharray="none" stroke-miterlimit="4" stroke-width="20" fill="none"/>
  <path id="path3033-0" fill="#496f84" d="m381.26,367.71c15.726,16.832,30.655,32.461,44.125,45.988,21.294,10.315,39.428-9.0106,28.281-27.781-15.831-16.695-29.206-31.341-43.061-44.18-6.5774,11.638-16.86,20.744-29.295,25.946"/>
  <path id="path3901" d="m68.96,643.16c-0.49455-13.343,9.6907-24.791,23.334-26.226" transform="translate(255.97774,-337.97917)" stroke="#496f84" stroke-linecap="round" stroke-miterlimit="4" stroke-dasharray="none" stroke-width="10" fill="none"/>
  <path id="path3033-0-6" d="m363.74,364.23c15.726,16.832,30.655,32.461,44.125,45.988,21.294,10.315,39.428-9.0106,28.281-27.781-15.831-16.695-29.206-31.341-43.061-44.18-6.5774,11.638-16.86,20.744-29.295,25.946" fill-opacity="0.16078431" fill="#3e5764"/>
 </g>
</svg>
