
<!-- Created with Inkscape (http://www.inkscape.org/) -->
<svg id="popup_svg" xmlns:rdf="http://www.w3.org/1999/02/22-rdf-syntax-ns#" xmlns="http://www.w3.org/2000/svg" viewBox="0 0 248.86031 138.31105" height="100%" width="100%" version="1.1" xmlns:cc="http://creativecommons.org/ns#" xmlns:dc="http://purl.org/dc/elements/1.1/">
 <defs id="defs5464">
  <clipPath id="clipPath6506" clipPathUnits="userSpaceOnUse">
   <rect id="rect6508" stroke-linejoin="round" stroke-dasharray="none" stroke-dashoffset="0" height="138.31" width="248.86" stroke="#f4ff43" stroke-linecap="round" stroke-miterlimit="4" y="901.12" x="472.34" stroke-width="1.1397" fill="none"/>
  </clipPath>
 </defs>
 <metadata id="metadata5467">
  <rdf:RDF>
   <cc:Work rdf:about="">
    <dc:format>image/svg+xml</dc:format>
    <dc:type rdf:resource="http://purl.org/dc/dcmitype/StillImage"/>
    <dc:title/>
   </cc:Work>
  </rdf:RDF>
 </metadata>
 <g id="g6374" style="enable-background:new;" clip-path="url(#clipPath6506)" transform="translate(-472.34039,-901.11768)">
  <g id="shelves" style="enable-background:new;" transform="translate(-26.694073,797.72194)" stroke="#000" stroke-linecap="butt">
   <path id="path3983-7-0" stroke-linejoin="miter" d="M498.23-11.715,761.74,70.704,759.67,361.02,498.23,268.74z" stroke-width="1px" fill="#111"/>
   <path id="path3953-3-6-8-7" stroke-linejoin="miter" d="m759.22,262.26-54.004,55.253-264.52-94.721,57.541-52.314z" stroke-width="1px" fill="#413b3b"/>
   <path id="path3955-1-6-7-4" stroke-linejoin="round" d="m440.69,223.02,0,4.8516,263.91,93.747-0.043-4.1669z" stroke-width="1px" fill="#494141"/>
   <path id="path3981-8-9" stroke-linejoin="round" d="m706.53,147.79,55.201-56.116-0.30674,4.4867-54.918,55.828z" stroke-width="1px" fill="#242424"/>
   <path id="path3953-3-6-0" stroke-linejoin="miter" d="m759.45,177.45-54.004,55.253-264.75-95.06,57.541-53.499z" stroke-width="1px" fill="#413b3b"/>
   <path id="path3955-1-6-72" stroke-linejoin="round" d="m440.69,137.87,0,4.1746,264.14,94.763-0.043-4.1669z" stroke-width="1px" fill="#494141"/>
   <path id="path3981-8-6-2" stroke-linejoin="round" d="m704.88,232.62,55.201-56.116-0.30674,4.4867-54.918,55.828z" stroke-width="1px" fill="#242424"/>
   <path id="path3953-3-6-2-7" stroke-linejoin="miter" d="M760.51,86.744,706.5,142,442.24,47.32,498.28,0.39793z" stroke-width="1px" fill="#413b3b"/>
   <path id="path3955-1-6-2-8" stroke-linejoin="round" d="m441.72,47.841,0.19803,3.4977,263.97,94.763-0.043-4.1669z" stroke-width="1px" fill="#494141"/>
   <path id="path3951-21-1" stroke-linejoin="miter" d="M697.58,340.86,695.99,40.848,761.73-21.915,760.48,272.61z" stroke-width="0.9525997px" fill="#292525"/>
   <path id="path3979-0-2-2" stroke-linejoin="miter" d="m697.91,340.94-4.1232-1.6108-2.7642-301.26,4.4997,2.2759z" stroke-width="1px" fill="#242424"/>
  </g>
  <g id="box" style="enable-background:new;" transform="translate(461.4324,803.8669)">
   <path id="path4037-1-9" opacity="0.55555558" fill="#191919" d="m152.5,138.79c13.214,1.7857,57.143,12.5,57.143,12.5l-36.786,60-48.929-19.286z"/>
   <path id="path3126-7-1" stroke-linejoin="miter" d="M124.36,116.01,125,137.72,77.457,189.21,73.189,167.24z" stroke="#000" stroke-linecap="butt" stroke-width="1px" fill="#AAA"/>
   <path id="path3128-0-1" stroke-linejoin="miter" d="M124.73,116.01,186.79,135.93,185,159.15l-60-22.5z" stroke="#000" stroke-linecap="butt" stroke-width="1px" fill="#818181"/>
   <path id="path3132-3-2" stroke-linejoin="miter" d="M125,137.01,184.64,158.79,145,218.08,78.214,189.15z" stroke="#000" stroke-linecap="butt" stroke-width="1px" fill="#919191"/>
   <path id="path3124-4-5" stroke-linejoin="miter" d="m73.106,167.38,70.823,27.835,0.35714,22.857-67.143-28.571z" stroke="#000" stroke-linecap="butt" stroke-width="1px" fill="#686868"/>
   <path id="path3130-0-8" stroke-linejoin="miter" d="m144.29,194.86,42.857-58.214-1.7857,22.857-40.714,57.5z" stroke="#000" stroke-linecap="butt" stroke-width="1px" fill="#3f3f3f"/>
   <path id="path3906-7-0" stroke-linejoin="miter" d="m96.135,179.69,25.001,10.102,0.25254,6.0609-25.254-10.354z" stroke="#FFF" stroke-linecap="butt" stroke-miterlimit="4" stroke-dasharray="none" stroke-width="2" fill="none"/>
   <path id="path3906-1-11-8" stroke-linejoin="miter" d="m96.135,188.53,25.001,10.102,0.25254,6.0609-25.254-10.354z" stroke="#FFF" stroke-linecap="butt" stroke-miterlimit="4" stroke-dasharray="none" stroke-width="2" fill="none"/>
  </g>
  <g id="book" style="enable-background:new;" transform="translate(-322.3972,793.81569)">
   <path id="path5106-8-64-6-8" fill="#726864" d="m910.76,151,45.017,14.554-30.463,41.294-46.71-19.632z"/>
   <path id="path5106-3-1-3" stroke-linejoin="round" d="m903.14,151.94-0.006-10.581-32.672,35.77c-3.5908,5.0409-2.4463,9.3709,0.59206,12.202z" stroke="#000" stroke-linecap="butt" stroke-width="1px" fill="#d23c08"/>
   <path id="path5106-8-64-0" stroke-linejoin="round" d="M903.4,153.25,948.42,167.8,917.96,209.09,871.25,189.46z" stroke="#000" stroke-linecap="butt" stroke-width="1px" fill="#d23c08"/>
   <path id="path5138-1-1" d="m873.21,176.48,43.848,15.234c0.39063,1.6602-2.6367,9.2774,0.19531,13.672l-43.75-17.871c-5.179-3.936-3.1242-8.6873-0.29297-11.035z" stroke="#626d5d" stroke-miterlimit="4" stroke-dasharray="none" stroke-width="0.5" fill="#FFF"/>
   <path id="path5140-9-4" d="m917.16,195.43,27.637-39.062c-1.5625,3.6133-1.6602,7.0312,0.0977,11.035l-27.637,37.793c-1.2695-3.418-0.87895-7.9102-0.0977-9.7656z" stroke="#626d5d" stroke-miterlimit="4" stroke-dasharray="none" stroke-width="0.5" fill="#FFF"/>
   <path id="path5106-3-7" stroke-linejoin="round" d="m902.33,141.12,45.017,14.554-30.463,41.294-46.71-19.632z" stroke="#000" stroke-linecap="butt" stroke-width="1px" fill="#d23c08"/>
   <path id="path5701-87" stroke-linejoin="miter" d="M944.65,166.68,929.87,186.71" fill-opacity="0" stroke="#626d5d" stroke-linecap="butt" stroke-miterlimit="4" stroke-dasharray="none" stroke-width="0.2"/>
   <path id="path5701-8-4" stroke-linejoin="miter" d="M941.27,170.69,926.49,190.71" fill-opacity="0" stroke="#626d5d" stroke-linecap="butt" stroke-miterlimit="4" stroke-dasharray="none" stroke-width="0.2"/>
   <path id="path5701-5-9" stroke-linejoin="miter" d="m943.55,165.16-14.777,20.025" fill-opacity="0" stroke="#626d5d" stroke-linecap="butt" stroke-miterlimit="4" stroke-dasharray="none" stroke-width="0.2"/>
   <path id="path5728-48" stroke-linejoin="miter" d="m875.32,185.33,36.46,14.639" stroke="#626d5d" stroke-linecap="butt" stroke-miterlimit="4" stroke-dasharray="none" stroke-width="0.2" fill="none"/>
   <path id="path5728-4-0" stroke-linejoin="miter" d="m871.32,185.19,36.46,14.639" stroke="#626d5d" stroke-linecap="butt" stroke-miterlimit="4" stroke-dasharray="none" stroke-width="0.2" fill="none"/>
   <path id="path5728-4-8-7" stroke-linejoin="miter" d="m879.33,184.5,36.46,14.639" stroke="#626d5d" stroke-linecap="butt" stroke-miterlimit="4" stroke-dasharray="none" stroke-width="0.2" fill="none"/>
  </g>
  <g id="box_front" stroke-linejoin="miter" style="enable-background:new;" transform="translate(-255.5287,1095.2799)" stroke-linecap="butt">
   <path id="path3124-4-6-4" d="m789.57-124.13,70.823,27.835,0.35714,22.857-67.143-28.571z" stroke="#000" stroke-width="1px" fill="#686868"/>
   <path id="path3906-7-5-1" d="m812.6-111.82,25.001,10.102,0.25254,6.0609-25.254-10.354z" stroke="#FFF" stroke-miterlimit="4" stroke-dasharray="none" stroke-width="2" fill="none"/>
   <path id="path3906-1-11-6-42" d="m812.6-102.98,25.001,10.102,0.25254,6.0609-25.254-10.354z" stroke="#FFF" stroke-miterlimit="4" stroke-dasharray="none" stroke-width="2" fill="none"/>
  </g>
  <g id="box_top" stroke-linejoin="miter" style="enable-background:new;" transform="matrix(0.98884895,-0.14892202,0.14892202,0.98884895,250.50938,782.76406)" stroke="#000" stroke-linecap="butt" stroke-width="1px" fill="#686868">
   <path id="path3132-2-5-8" d="m265.45,166.07,63.227,19.794-43.227,61.277-71.565-30.123z"/>
   <path id="path3124-9-7-0" d="m213.55,217.55,70.823,27.835,0.35714,6.8572-70.1-28.712z"/>
   <path id="path3130-9-6-3" d="m284.73,245.03,43.843-58.073-0.096,6.6644-43.671,58.486z"/>
  </g>
 </g>
</svg>
