<?xml version="1.0" encoding="UTF-8" standalone="no"?>
<!-- Created with Inkscape (http://www.inkscape.org/) -->
<svg id="svg3324" xmlns:rdf="http://www.w3.org/1999/02/22-rdf-syntax-ns#" xmlns="http://www.w3.org/2000/svg" viewBox="0 0 401.69 300.52" version="1.1" xmlns:cc="http://creativecommons.org/ns#" xmlns:xlink="http://www.w3.org/1999/xlink" xmlns:dc="http://purl.org/dc/elements/1.1/">
 <defs id="defs3326">
  <linearGradient id="linearGradient3175" y2="535.68" gradientUnits="userSpaceOnUse" x2="328.12" gradientTransform="translate(453.28614,-27.204768)" y1="533.75" x1="339.41">
   <stop id="stop3831-7" stop-color="#2c89a0" offset="0"/>
   <stop id="stop3833-7" stop-color="#2c89a0" stop-opacity="0" offset="1"/>
  </linearGradient>
 </defs>
 <metadata id="metadata3329">
  <rdf:RDF>
   <cc:Work rdf:about="">
    <dc:format>image/svg+xml</dc:format>
    <dc:type rdf:resource="http://purl.org/dc/dcmitype/StillImage"/>
    <dc:title/>
   </cc:Work>
  </rdf:RDF>
 </metadata>
 <g id="layer1" transform="translate(-201.54197,-332.04172)">
  <path id="path4249" d="m203.94,564.06,396.77-93.137,0.62092,160.82-397.39-1.2418z" stroke="#000" stroke-miterlimit="4" stroke-dasharray="none" stroke-width="3.95712471" fill="#3c85a5"/>
  <path id="rect3459" d="m600.29,335.77c-0.0396,10.245,0.21639,137.17,0.21639,137.17-19.034,7.4085-374.25,87.538-395.51,96.381l0.26968-233.56c-0.007-1.4732,386.68-0.15523,395.02,0z" stroke="#000" stroke-miterlimit="4" stroke-dasharray="none" stroke-width="3.95712471" fill="#bcbfde"/>
  <g id="body" transform="translate(-1.449515,25.124927)">
   <path id="path3949-9" d="m388.56,418c0.63936,0.89511,4.4755,29.027,5.2428,29.027,0.76724,0,36.827-10.23,37.339-10.741,0.5115-0.51149-9.2068-25.702-9.2068-25.702v-18.669z" fill="#e9afc4"/>
   <path id="path3807-1" opacity="0.05017922" d="m401.17,416.62c11.688,0.008,6.7817,15.705,6.7817,15.705l16.24-13.028-4.4616-20.166c-0.53539,3.2124-8.196,15.5-18.56,17.49z" fill="#020301"/>
   <path id="path3904-9" d="m424.3,417.5c-1.5319-2.4073-3.0858-9.8105-3.0858-9.8105,1.7508,1.2037,6.3891,1.2685,6.9648,3.3016,1.335,4.7146,0.12582,7.3502,2.2049,10.524,0,0,36.729,24.576,39.574,26.108,3.05,4.9268,1.5634,5.5132,3.2285,11.405,1.6651,5.8922,3.267,11.477,2.023,21.004,3.3805,6.1769,8.309,19.105,10.166,28.498,1.8566,9.3937,3.238,18.282,3.621,25.285l-9.8976,13.66c-12.017,7.4432-21.478,9.8584-27.244,8.6692-8.0974,12.037-5.0335,44.987-5.0335,44.987-16.437,28.961-53.571,18.6-53.571,18.6-28.178-1.5655-36.982-25.645-36.982-25.645,1.2619-35.004,8.0206-83.155,8.0206-83.155l0.38185-41.77c-3.4367-11.074-3.2558-26.671,2.8538-35.836l15.073-6.4332s4.1862-15.33,5.6032-8.7946c1.8849,8.6948,9.156,21.924,12.287,21.142,1.5655-0.39136,4.6358-9.2268,13.985-12.866,5.8012-2.2581,9.8275-8.8735,9.8275-8.8735z" fill="#e3e2db"/>
   <path id="path3050-5" stroke-linejoin="miter" d="m371.45,369.61c-1.8873,7.6273,3.2391,8.7606,4.1135,14.269,0.87443,5.5088,0.31414,10.719,2.9399,17.459,2.6257,6.7397,3.0748,15.307,11.524,16.615,8.4488,1.3082,20.218-5.25,24.457-10.188,4.2385-4.9385,3.5028-3.8006,5.0628-12.098s4.9398-28.447-0.94927-37.535c-5.889-9.0876-14.756-13.847-24.681-12.098-9.9249,1.7492-20.579,15.948-22.466,23.576z" stroke="#de8787" stroke-linecap="butt" stroke-width="0.54827297px" fill="#e9afc4"/>
   <path id="path4040-1" opacity="0.21505378" d="m395.33,377.08c-2.9854,2.2678-2.9369,5.0744-3.4086,7.6485-0.47168,2.574-0.21294,5.5372,0.41568,7.3159,1.5574-0.59198,1.2784-3.055,1.1639-1.9121-0.43292-1.8713-0.51618-4.4675,0.6444-6.7672,3.239,1.8571,9.2661-0.70363,13.451-2.3571,1.6079-3.233,4.8618-4.5908,1.7002-6.0064-3.1616-1.4157-10.981-0.18941-13.967,2.0784z" fill="#000303"/>
   <path id="path3826-0" d="m396.78,383.41c3.4685,0.96153,10.571-0.23103,10.571-0.23103s-6.8695-5.4438-10.571,0.23103z" fill="#fffefe"/>
   <path id="path3828-04" opacity="0.46953406" d="m389.47,275.05c0,4.753-3.853,8.606-8.606,8.606s-8.606-3.853-8.606-8.606,3.853-8.606,8.606-8.606c4.7529,0,8.606,3.853,8.606,8.606z" fill-rule="nonzero" transform="matrix(0.19824523,0.03516273,-0.03516273,0.19824523,335.2144,314.3508)" fill="#00F"/>
   <path id="path3828-4-6" opacity="0.46953406" d="m389.47,275.05c0,4.753-3.853,8.606-8.606,8.606s-8.606-3.853-8.606-8.606,3.853-8.606,8.606-8.606c4.7529,0,8.606,3.853,8.606,8.606z" fill-rule="nonzero" transform="matrix(0.09912261,0.01758137,-0.01758137,0.09912261,367.82105,348.25571)" fill="#000"/>
   <path id="path3851-4" d="m393.34,379.45,1.4964,0.70885c3.7805-2.1265,6.9309-4.0168,15.594-1.4177-1.8115-2.1265-9.2937-5.7495-17.091,0.70884z" fill="#000"/>
   <path id="path3930-0" opacity="0.12544801" d="m406.97,354.92c-2.19,7.2782-29.278,18.078-33.748,19.286,2.7913,5.3574,6.9949,0.2233,14.517,6.3627-0.2148,2.4164,0.28573,2.9206-2.148,4.9868-2.8452,1.067-7.4958,2.1254-10.089,5.4553,0.50527-3.3673,0.44606-2.9802,0.0877-8.1356-1.6031-4.948-8.0848-6.7119-4.7772-11.382,3.3076-4.6705,33.576-21.361,36.157-16.573z" fill="#000"/>
   <path id="path3853-7" stroke-linejoin="miter" d="m373.52,351.11c-3.2268,5.9092-3.5521,11.487-4.0067,18.204-0.32392,4.786,2.1757,8.8196,3.623,12.129,0.21589-8.0964,3.2292-11.184,4.0955-11.42,0.86635-0.23628,24.406-9.6105,27.015-15.752,8.0447,3.2537,12.05,17.248,12.365,17.485,0.31504,0.23628,0.55513,11.08,0.0848,17.802,2.8151-0.0906,3.6126-3.7247,5.7434-8.8232,5.3424,1.3041-1.117,10.962-1.1026,16.461,0.0123,4.7379-3.2012,10.427,1.0239,12.571,2.5139,1.2756,0.33905-2.2715,0.65692-5.0725,0.41733-3.6774,2.8744-4.0144,3.2023-7.4981,0.71439-7.5881,3.7522-20.767,3.2292-29.556-0.74184-12.466-8.3853-20.386-20.163-25.126-7.5274-3.0294-17.805-3.7215-24.914,0.19025-3.3561,1.8467-9.0162,5.0443-10.852,8.4064z" stroke="#000" stroke-linecap="butt" stroke-width="0.55368358px" fill="#000"/>
   <path id="path3858-5" d="m385.96,383.4c-4.8831,1.3389-8.3486-0.15753-8.3486-0.15753s5.6707-5.4344,8.3486,0.15753z" fill="#FFF"/>
   <path id="path3828-2-6" opacity="0.46953406" d="m389.47,275.05c0,4.753-3.853,8.606-8.606,8.606s-8.606-3.853-8.606-8.606,3.853-8.606,8.606-8.606c4.7529,0,8.606,3.853,8.606,8.606z" fill-rule="nonzero" transform="matrix(0.20133949,0,0,0.20133949,306.44052,327.07757)" fill="#00F"/>
   <path id="path3828-4-2-8" opacity="0.46953406" d="m389.47,275.05c0,4.753-3.853,8.606-8.606,8.606s-8.606-3.853-8.606-8.606,3.853-8.606,8.606-8.606c4.7529,0,8.606,3.853,8.606,8.606z" fill-rule="nonzero" transform="matrix(0.10066973,0,0,0.10066973,344.46734,354.68809)" fill="#000"/>
   <path id="path4141-8-8" d="m398.26,405.4c-2.8359,3.0484-11.602,2.0785-11.602,2.0785l-1.1602-2.3556,11.473-0.00001z" fill="#000"/>
   <path id="path3910-4" d="m442.88,550.04c6.874-1.3517,2.6579-1.4103,4.0088,6.2048,1.351,7.6151-4.0088,13.364-22.012,25.105-23.482,6.2619-54.791,10.176-54.791,10.176s36.789-7.8274,50.878-16.437c13.306-8.6101,15.043-23.696,21.917-25.048z" fill="#aca793"/>
   <path id="path3910-7-7" d="m435.72,546.59c1.0455,12.324-17.134,24.688-20.313,27.071-31.309,10.958-54.009,11.741-54.009,11.741-0.2222,0.0909,8.259-2.5959,50.878-16.437,13.306-8.6101,16.712-21.891,23.444-22.375z" fill="#aca793"/>
   <path id="path3933-1" d="m388.58,380.51c-6.6391-4.5644-14.108-2.6971-14.108-2.6971l1.2448,2.0747c2.9046-1.6598,12.863,0.62242,12.863,0.62242z" fill="#24221c"/>
   <path id="path3942-8" d="m419.65,382.14c0.25574-0.51149,1.7641-1.9902,3.4264-2.7574,0,0,3.9658-1.2823,4.6052,4.0244-0.41915,3.589-3.5723,11.258-3.5723,11.258-1.0869,1.2787-2.2378,1.6623-2.2378,1.6623-1.5984-0.63936-3.0689-2.3017-3.0689-2.3017z" fill="#e9afaf"/>
   <path id="path3945-90" opacity="0.24014336" d="m421.17,384.31c0.0639-0.25573,1.0503-2.9562,2.3656-3.005,1.3153-0.0487,3.122,2.0428,2.7493,3.005-0.37274,0.96225-1.5824-0.74773-2.1099,0.19182-0.52744,0.93955,2.2693,2.8367,1.9181,3.9001-0.35125,1.0634-1.4568,0.65743-2.1099,1.0869-0.65314,0.42948-1.5743,0.7731-1.7902,1.4705-0.21596,0.69743,1.1197,1.5468,0.57543,1.982-0.54426,0.43528-1.4745-0.23854-1.8542-1.023-0.37964-0.78444,0.0535-2.1791,0.5115-3.0689,0.45794-0.88987,1.9477-1.3125,2.046-2.046,0.0982-0.73343-0.23182-1.2278-0.76724-1.3427-0.53542-0.11492-0.81642,1.302-1.4066,1.023-0.59018-0.27901-0.19181-1.9181-0.12788-2.1738z" fill="#000203"/>
   <path id="path4018-1" opacity="0.2688172" d="m422.22,412.19c0.21885,0.87539,1.5328,6.8932,1.9705,5.5802,0.43769-1.3131,2.0786-0.85977,1.9688-4.7048-1.3183-1.4282-3.9393-0.87539-3.9393-0.87539z" fill="#000303"/>
   <path id="path4130-6" opacity="0.10394263" d="m427.57,415.26-5.7961,8.5681-6.8041,4.788c-6.0481,4.032-7.5601,14.364-7.5601,14.364l-5.796,1.008-0.75601,5.292h-4.284l0.756-4.032-4.788,1.512-1.512,4.788-1.512,0.252v-3.024l-5.04,3.528s-1.764,1.764-2.52,6.8041c5.2921-6.3001,11.844-7.3081,11.844-7.3081s8.951,1.4417,11.844-1.512c4.4506-4.5437,7.4675-11.898,10.584-16.632,0,0,8.8201-9.5761,12.6-12.096z" fill="#000303"/>
   <path id="path4141-3" d="m398.53,405.19c-2.971,1.4855-12.154,1.0128-12.154,1.0128l-1.2154-1.1479h12.019z" fill="#FFF"/>
   <path id="path3938-1" d="m384.73,405.09c0.25576-0.0639,5.0689,0.4619,5.4525,0.4619,0.38362,0,8.8692-0.58977,8.8692-0.58977l-7.7363-0.57543-1.4705,0.51149-1.2787-0.51149z" fill="#de8787"/>
   <path id="path3856-8" d="m385.03,405.15c2.8697,2.3184,7.0432,2.5937,14.105-0.15819-3.5949,2.7149-5.0897,4.3301-8.81,4.3662s-5.2946-4.208-5.2946-4.208z" fill="#de8787"/>
   <path id="path4161-51" opacity="0.40143367" d="m396.6,382.74c0.70907-1.7453,1.102-2.7463,4.3438-2.9875,3.0199,0.81107,6.366,3.9572,6.366,3.9572s-3.4911-2.3505-5.9977-3.0079c-2.8058-0.28085-4.7121,2.0382-4.7121,2.0382z" fill="#000"/>
   <path id="path4161-1-4" opacity="0.40143367" d="m385.97,383.28c-0.65004-1.7657-1.011-2.7776-3.8136-3.2016-2.5881,0.62868-5.4067,3.5466-5.4067,3.5466s2.9611-2.1232,5.1097-2.6294c2.415-0.11688,4.1107,2.2844,4.1107,2.2844z" fill="#000"/>
   <path id="path4273-1" opacity="0.14336919" d="m442.6,494.35c-4.7731-0.38184-17.732-4.1327-23.202-5.7692,4.2442,7.3027,26.829,17.225,26.829,17.225s-4.2004-4.7731-3.6276-11.456z" fill="#010101"/>
   <path id="path3033-8" opacity="0.25089608" d="m422.62,490.32c5.5164,1.4302,19.767,2.7077,19.767,2.7077l-2.3459-15.971,1.8646-2.4985c0.89233,10.321,6.1284,32.878,9.114,41.505-0.11507,0.57857,0.97045,40.138,0.62325,40.132-0.34719-0.006-1.8094,6.4002-2.0467,2.579-0.26033-4.1905,0.13512-35.834-0.40599-39.048-0.38647-2.2954-1.6438-4.8889-1.6438-4.8889l-4.0862-9.6026s-17.806-10.096-20.84-14.915z" fill="#000"/>
   <path id="path4277-4" opacity="0.35125451" d="m458.7,455.35c8.0189,17.374,17.374,44.486,17.374,44.486l4.3913,5.3459s-13.747-39.331-21.765-49.832z" fill="#fdffff"/>
   <path id="path3940-9-6-8" d="m389.78,399.51c-1.0045,0.18823-2.621,0.63953-3.2949,0.38056-0.67387-0.25896-1.2998-1.2129-1.2871-2.375s1.0266-2.6861,1.3462-2.284c0.31959,0.40208-0.0702,2.8245,1.192,3.665,0.55416-0.268,1.5782-0.16153,2.4365,0.0953,0.20556-0.0725,1.0437-0.15096,1.417-0.20759,0.37335-0.0566,0.70183-0.005,1.3617-0.76001,0.41608-0.47618,0.43541-1.3746,0.74432-1.3594,0.27494,0.0136,0.70917,1.8127,0.0773,2.9482-0.63188,1.1355-2.471,0.22327-3.993-0.10305z" fill="#b78a9b"/>
  </g>
  <g id="coffeeCup" transform="matrix(0.55368362,0,0,0.55368362,-57.207399,273.71217)">
   <path id="path3969-3-9" d="m785.77,494.06s10.51-6.6066,12.613-6.6066c2.1021,0,6.3063-3.003,13.213,2.1021,0,0,3.3033,11.111-1.5015,21.021-1.9315-1.3747-2.741-1.1112-4.8048-2.1021,0,0,4.4952-6.2317,1.8018-14.414-3.3033-2.7027-9.009,0.6006-9.009,0.6006-4.8048,3.003-9.9099,6.006-9.9099,6.006z" fill="#00babf"/>
   <path id="path3969-6" d="m812.45,507.74c-6.2052,7.7527-8.4445,15.516-17.718,22.222l-2.7027-8.1081s9.9099-9.009,13.814-14.715c3.9651,0.0781,1.8476,0.59147,6.6066,0.6006z" fill="#00babf"/>
   <path id="path3965-4" d="m741.24,487.03s8.4156-6.5521,25.251-9.996c15.031-1.3246,24.65,0.61782,24.65,0.61782,1.2012,8.1081,6.3152,56.869,6.3152,56.869s-2.1067,5.8281-19.542,9.4843c-15.331,3.4085-21.646-3.5328-21.646-3.5328s-13.827-46.835-15.028-53.442z" fill="#00d1ff"/>
   <path id="path3967-2" d="m773.88,482.76c-2.605,0.0254-4.8408,0.27508-6.3125,0.71875-3.9973,1.2051-11.44,2.8925-18.25,7.5938,4.4303,0.41999,11.214-0.0244,18.719-1.4375,7.5245-1.4169,14.06-3.461,18.031-5.4688-4.0393-1.005-8.4816-1.4424-12.188-1.4062z" stroke="#000" fill="#000"/>
   <path id="path3992-9-5" opacity="0.22222224" d="m301.2,534.94c0,2.8195-10.487,5.1051-23.423,5.1051s-23.423-2.2856-23.423-5.1051,10.487-5.1051,23.423-5.1051,23.423,2.2856,23.423,5.1051z" fill-rule="nonzero" transform="matrix(0.98272914,-0.18504983,0.18504983,0.98272914,394.8279,11.214692)" fill="#000080"/>
   <path id="path3827-6" d="m763.36,493.65c4.1902,0.32232,21.596-2.5786,28.042-9.025,0,13.86,3.8679,48.026,3.8679,48.026-5.8018,9.6697-20.951,9.025-20.951,9.025z" fill="url(#linearGradient3175)"/>
   <path id="path3839-14" opacity="0.60573479" d="m745.31,494.29,6.1241,1.2893,11.604,46.092-5.8018-2.9009z" fill="#FFF"/>
   <path id="path3839-4-3" opacity="0.34767025" d="m752.88,495.74,2.1449,0.64465,11.715,45.125-2.1508-1.2893z" fill="#FFF"/>
  </g>
  <g id="arm" transform="matrix(0.55368362,0,0,0.55368362,-57.207399,273.71217)">
   <path id="path3952-0" d="m847.03,472.95-21.479-3.5562-17.07,3.6984-9.6728,5.2632-7.2546,2.276c-0.14225,5.1209,4.5519,7.9658,4.5519,7.9658l12.802-0.28449s5.2632-4.2674,13.087-3.1294c3.1294,1.707,2.4182,6.1166,2.4182,6.1166-4.9787,2.1337-17.923-0.14225-26.6,3.8407,0,0-5.1209,7.5391,1.9915,12.091,0,0,19.346-0.00001,21.906,1.2802-1.138,2.276-12.376,2.845-18.35,4.2674-0.99573,9.8151,7.2546,8.8193,7.2546,8.8193,0.71124,8.6771,7.6814,7.1124,7.6814,7.1124,1.4225,7.6814,11.38,5.8322,11.38,5.8322,4.5519,0,8.9616,1.8492,13.656,0.85348l15.789-9.2461,7.2546-34.851z" fill="#de8787"/>
   <path id="path3955-42" opacity="0.51254482" d="m817.17,484.32c7.2546-1.9915,17.602-2.9276,16.927-2.7027-5.1209,1.707-7.6814,5.4054-7.6814,5.4054l1.9915,4.5519-28.165,3.9829-2.5604,6.2589,3.1294,4.1252,25.747-1.707c3.7933-0.23708,6.593-1.2739,10.1,3.1294,0,0-9.8151,3.6984-18.065,5.2632l-12.945,1.707c0.28449,4.4097,5.1209,6.5434,5.1209,6.5434l20.626,1.8492,8.8193-4.2674-3.6984,8.5349-23.755-2.9872,7.2546,4.2674s20.626,2.5605,21.906,2.1337c1.2802-0.42675,6.6856-5.9744,6.6856-5.9744l-7.8236,10.242-18.35-1.5647,21.053,2.7027-22.333-1.9915-2.4182-5.2632-4.6942-0.56899-3.6984-6.9701s-5.1209,0.2845-6.2589-7.8236l18.919-6.1166h-25.32s-3.6984-5.5476-0.42674-12.233l27.454-3.9829s0.42674-7.3969-7.5391-6.5434z" fill="#000203"/>
   <path id="path3907-3" d="m900.01,419.71c1.4137,51.745,19.792,63.244,12.723,63.244-7.0684,0-16.964-2.8747-16.964-2.8747l-15.551-11.499-11.309,8.6241-25.446-7.1868s28.274,22.998,5.6548,64.681l28.274-12.072,16.407,17.172,23.85,11.979s30.674-7.1244,45.466-15.004c5.8621-5.1724,18.602-23.777,18.602-23.777-1.7671-14.014-10.99-43.861-8.8035-49.344-6.9753-14.62-9.0631-32.308-12.946-39.205-2.1718-6.0434-1.8441-19.708-4.2406-29.802-2.465-9.5455-6.5078-24.495-10.104-30.365-25.446-2.8747-35.717,12.31-35.717,12.31-15.551,22.998-9.8958,43.121-9.8958,43.121z" fill="#CCC"/>
   <path id="path4235-1" opacity="0.18996414" d="m880.59,473.13c5.9041,5.1661,23.985,12.915,33.21,23.616-12.915,2.952-23.247-2.583-23.247-2.583-4.428-7.0111-8.4871-13.284-9.9631-21.033z" fill="#020003"/>
   <path id="path4257-8" opacity="0.15" d="m913.29,516.19s10.172,26.724,4.4828,28.621c-5.6896,1.8966-15.172,0.68966-18.276-8.6207-3.1034-9.3103,13.793-20,13.793-20z" fill="#020003"/>
   <path id="path4259-5" opacity="0.15" d="m899.15,516.19-10,18.621-5.1724-4.8276z" fill="#020003"/>
   <path id="path4261-1" opacity="0.15" d="m896.39,505.5-13.448,20-3.1034-2.7586z" fill="#020003"/>
   <path id="path4263-5" opacity="0.15" d="m936.39,494.47c9.6552,10.69,24.67,28.594,20.393,35.01-2.9878,4.4817-8.5367,8.6119-11.724-4.1379-0.68965-2.7586-2.1024-17.417-8.669-30.872z" fill="#020003"/>
   <path id="path4265-1" opacity="0.15" d="m954.91,501.93c7.7491,8.1181,13.731,14.846,12.759,23.793-0.34334,3.1606-3.5975,9.0575-6.2069,7.2414-3.2323-2.2497,0.0904-17.381-6.5517-31.034z" fill="#020003"/>
   <path id="path4267-1" opacity="0.15" d="m949.15,486.54c12.418,2.5698,31.34,25.056,26.237,29.535-2.069-0.0828-14.832-22.163-26.237-29.535z" fill="#020003"/>
   <path id="path4269-3" opacity="0.15" d="m947.77,478.95c2.4138,0.34482,21.034,8.2759,30,19.655l-1.7241,4.1379c-5.1724-12.069-28.276-23.793-28.276-23.793z" fill="#020003"/>
   <path id="path4271-3" opacity="0.15" d="m938.8,471.71s23.793,4.1379,34.828,12.414l-2.4138-5.1724c-12.069-6.8966-32.414-7.2414-32.414-7.2414z" fill="#020003"/>
   <path id="path4275-0" opacity="0.2688172" d="m899.79,465.85c-3.7366-1.8027-10.061-2.9363-10.989,2.069-0.92812,5.0053,10.739,15.84,14.963,11.979,4.2239-3.8611-0.23656-12.245-3.9732-14.048z" fill="#010101"/>
   <path id="path3859-4" opacity="0.56630812" d="m829.83,521.31s-8.5708-2.1411-6.3292-8.6786c1.2862,3.4121,7.1636,8.8871,6.3292,8.6786z" fill="#000"/>
   <path id="path3859-3-0" opacity="0.56630812" d="m841.45,532.15s-8.5708-2.1411-6.3292-8.6786c1.2862,3.4121,7.1636,8.8871,6.3292,8.6786z" fill="#000"/>
   <path id="path3859-0-7" opacity="0.56630812" d="m816.44,504.13s-6.8549-5.5725-2.0532-10.543c-0.28158,3.6356,2.7206,11.086,2.0532,10.543z" fill="#000"/>
  </g>
 </g>
</svg>
