<?xml version="1.0" encoding="UTF-8" standalone="no"?>
<!-- Created with Inkscape (http://www.inkscape.org/) -->

<svg
   xmlns:dc="http://purl.org/dc/elements/1.1/"
   xmlns:cc="http://creativecommons.org/ns#"
   xmlns:rdf="http://www.w3.org/1999/02/22-rdf-syntax-ns#"
   xmlns:svg="http://www.w3.org/2000/svg"
   xmlns="http://www.w3.org/2000/svg"
   xmlns:sodipodi="http://sodipodi.sourceforge.net/DTD/sodipodi-0.dtd"
   xmlns:inkscape="http://www.inkscape.org/namespaces/inkscape"
   width="226.42857"
   height="226.42857"
   id="svg4825"
   version="1.1"
   inkscape:version="0.48.4 r9939"
   sodipodi:docname="talk.svg">
  <defs
     id="defs4827" />
  <sodipodi:namedview
     id="base"
     pagecolor="#ffffff"
     bordercolor="#666666"
     borderopacity="1.0"
     inkscape:pageopacity="0.0"
     inkscape:pageshadow="2"
     inkscape:zoom="0.35"
     inkscape:cx="150.26341"
     inkscape:cy="20.803003"
     inkscape:document-units="px"
     inkscape:current-layer="layer1"
     showgrid="false"
     fit-margin-top="0"
     fit-margin-left="0"
     fit-margin-right="0"
     fit-margin-bottom="0"
     inkscape:window-width="486"
     inkscape:window-height="383"
     inkscape:window-x="374"
     inkscape:window-y="271"
     inkscape:window-maximized="0" />
  <metadata
     id="metadata4830">
    <rdf:RDF>
      <cc:Work
         rdf:about="">
        <dc:format>image/svg+xml</dc:format>
        <dc:type
           rdf:resource="http://purl.org/dc/dcmitype/StillImage" />
        <dc:title></dc:title>
      </cc:Work>
    </rdf:RDF>
  </metadata>
  <g
     inkscape:label="Calque 1"
     inkscape:groupmode="layer"
     id="layer1"
     transform="translate(-419.02231,-595.30804)">
    <path
       style="fill:none;stroke:#4a7086;stroke-width:9.97694874;stroke-linecap:round;stroke-linejoin:round;stroke-miterlimit:4;stroke-opacity:1;stroke-dashoffset:0"
       d="m 562.64905,716.74412 8.9471,0.71429 23.50578,20.7183 -1.49768,-22.14671 5.50578,-0.71445 c 8.59168,-1.11489 15.63826,-7.0102 15.63826,-15.71795 l 0,-50.01172 c 0,-8.70774 -6.97467,-15.71795 -15.63826,-15.71795 l -92.88955,0 c -8.66358,0 -15.63825,7.0102 -15.63825,15.71795 l 0,24.01173"
       id="rect4764-6-8"
       inkscape:connector-curvature="0"
       sodipodi:nodetypes="ccccssssssc" />
    <path
       style="fill:none;stroke:#4a7086;stroke-width:10;stroke-linecap:round;stroke-linejoin:round;stroke-miterlimit:4;stroke-opacity:1;stroke-dashoffset:0"
       d="m 463.30803,673.16519 83.42861,0 c 8.7057,0 15.71427,7.00856 15.71427,15.71426 l 0,50.00003 c 0,8.70571 -7.00857,15.71427 -15.71427,15.71427 l -42.00001,0 -24.28573,24.28572 -3.57143,-23.57143 -13.57144,-0.71429 c -8.69367,-0.45756 -15.71427,-7.00856 -15.71427,-15.71427 l 0,-50.00003 c 0,-8.7057 7.00857,-15.71426 15.71427,-15.71426 z"
       id="rect4764-0"
       inkscape:connector-curvature="0"
       sodipodi:nodetypes="ssssscccssss" />
    <path
       style="fill:none;stroke:#3e5764;stroke-width:9.97694874;stroke-linecap:round;stroke-linejoin:round;stroke-miterlimit:4;stroke-opacity:0.16078431;stroke-dashoffset:0"
       d="m 567.47036,724.06555 8.9471,0.71429 23.50578,20.7183 -1.49768,-22.14671 5.50578,-0.71445 c 8.59168,-1.11489 15.63826,-7.0102 15.63826,-15.71795 l 0,-50.01171 c 0,-8.70775 -6.97467,-15.71795 -15.63826,-15.71795 l -92.88955,0 c -8.66358,0 -15.63825,7.0102 -15.63825,15.71795 l 0,24.01172"
       id="rect4764-6-3-5"
       inkscape:connector-curvature="0"
       sodipodi:nodetypes="ccccssssssc" />
    <path
       style="fill:none;stroke:#3e5764;stroke-width:10;stroke-linecap:round;stroke-linejoin:round;stroke-miterlimit:4;stroke-opacity:0.16078431;stroke-dashoffset:0"
       d="m 468.12934,680.48661 83.42861,0 c 8.7057,0 15.71427,7.00856 15.71427,15.71427 l 0,50.00003 c 0,8.70571 -7.00857,15.71427 -15.71427,15.71427 l -42.00001,0 -24.28573,24.28572 -3.57143,-23.57143 -13.57144,-0.71429 c -8.69367,-0.45756 -15.71427,-7.00856 -15.71427,-15.71427 l 0,-50.00003 c 0,-8.70571 7.00857,-15.71427 15.71427,-15.71427 z"
       id="rect4764-3-0"
       inkscape:connector-curvature="0"
       sodipodi:nodetypes="ssssscccssss" />
    <rect
       style="fill:none;stroke:#6fa2b3;stroke-width:10;stroke-linecap:round;stroke-linejoin:round;stroke-miterlimit:4;stroke-opacity:1;stroke-dasharray:none;stroke-dashoffset:0"
       id="rect4869"
       width="216.42857"
       height="216.42857"
       x="424.02231"
       y="600.30804"
       ry="15.714272" />
  </g>
</svg>
