<?xml version="1.0" encoding="UTF-8" standalone="no"?>
<!-- Created with Inkscape (http://www.inkscape.org/) -->

<svg
   xmlns:dc="http://purl.org/dc/elements/1.1/"
   xmlns:cc="http://creativecommons.org/ns#"
   xmlns:rdf="http://www.w3.org/1999/02/22-rdf-syntax-ns#"
   xmlns:svg="http://www.w3.org/2000/svg"
   xmlns="http://www.w3.org/2000/svg"
   xmlns:sodipodi="http://sodipodi.sourceforge.net/DTD/sodipodi-0.dtd"
   xmlns:inkscape="http://www.inkscape.org/namespaces/inkscape"
   width="210mm"
   height="297mm"
   id="svg2"
   version="1.1"
   inkscape:version="0.48.2 r9819"
   sodipodi:docname="dessin-draft.svg">
  <defs
     id="defs4" />
  <sodipodi:namedview
     id="base"
     pagecolor="#ffffff"
     bordercolor="#666666"
     borderopacity="1.0"
     inkscape:pageopacity="0.0"
     inkscape:pageshadow="2"
     inkscape:zoom="0.98994949"
     inkscape:cx="179.03041"
     inkscape:cy="666.08832"
     inkscape:document-units="px"
     inkscape:current-layer="layer1"
     showgrid="false"
     inkscape:window-width="1600"
     inkscape:window-height="876"
     inkscape:window-x="0"
     inkscape:window-y="24"
     inkscape:window-maximized="1" />
  <metadata
     id="metadata7">
    <rdf:RDF>
      <cc:Work
         rdf:about="">
        <dc:format>image/svg+xml</dc:format>
        <dc:type
           rdf:resource="http://purl.org/dc/dcmitype/StillImage" />
        <dc:title></dc:title>
      </cc:Work>
    </rdf:RDF>
  </metadata>
  <g
     inkscape:label="Calque 1"
     inkscape:groupmode="layer"
     id="layer1">
    <path
       sodipodi:type="arc"
       style="fill:#d6d6d6;fill-opacity:1;stroke:none"
       id="path2985"
       sodipodi:cx="306.5813"
       sodipodi:cy="341.21478"
       sodipodi:rx="86.368042"
       sodipodi:ry="133.34013"
       d="m 392.94934,341.21478 a 86.368042,133.34013 0 1 1 -172.73608,0 86.368042,133.34013 0 1 1 172.73608,0 z" />
    <rect
       style="fill:#d6d6d6;fill-opacity:1;stroke:none"
       id="rect2987"
       width="136.37059"
       height="260.61935"
       x="485.88336"
       y="215.95587"
       ry="68.185295" />
    <rect
       style="fill:#43c3b8;fill-opacity:1;stroke:none"
       id="rect3764"
       width="124.24876"
       height="86.873123"
       x="491.94431"
       y="338.18436"
       ry="1.6578836" />
    <path
       sodipodi:type="arc"
       style="fill:#43c3b8;fill-opacity:1;stroke:#9cdede;stroke-width:2.04823542;stroke-miterlimit:4;stroke-opacity:1;stroke-dasharray:none"
       id="path3760"
       sodipodi:cx="552.04834"
       sodipodi:cy="293.23254"
       sodipodi:rx="65.154839"
       sodipodi:ry="8.586297"
       d="m 617.02539,293.86642 a 65.154839,8.586297 0 1 1 0.0788,-0.16064"
       sodipodi:start="0.073891201"
       sodipodi:end="6.3383287"
       transform="matrix(0.9534552,0,0,1,25.692682,45.456865)"
       sodipodi:open="true" />
    <path
       transform="matrix(0.93039752,0,0,5.2352082,39.948941,-1110.5803)"
       style="fill:#43c3b8;fill-opacity:1;stroke:none"
       d="m 617.02539,293.86642 c -8.08509,4.53619 -33.90121,8.27907 -69.78704,7.92899 -35.88583,-0.35008 -54.13777,-4.4676 -60.16706,-9.19674 -5.90947,-4.63516 33.90121,-8.27907 69.78704,-7.92899 26.87092,0.26213 49.74547,2.67693 57.55103,6.07549"
       id="path3762"
       inkscape:connector-curvature="0"
       sodipodi:nodetypes="csssc" />
    <path
       style="fill:#f2f2f2;fill-opacity:1;stroke:none"
       d="m 557.60419,226.05739 c 26.39629,19.1929 41.5253,29.67494 40.91118,62.75866 l -2.0203,108.83808 c -0.61412,33.08372 -9.46412,48.61652 -30.80965,68.81957 31.1824,-14.14214 42.93148,-35.73015 42.93148,-68.81957 l 0,-108.83808 c 0,-33.08942 -23.87092,-55.68759 -51.01271,-62.75866 z"
       id="rect2989"
       inkscape:connector-curvature="0"
       sodipodi:nodetypes="csscssc" />
    <text
       xml:space="preserve"
       style="font-size:40px;font-style:normal;font-variant:normal;font-weight:normal;font-stretch:condensed;text-align:start;line-height:125%;letter-spacing:0px;word-spacing:0px;writing-mode:lr-tb;text-anchor:start;fill:#e9f800;fill-opacity:1;stroke:none;font-family:Impact;-inkscape-font-specification:Impact Condensed"
       x="352.47458"
       y="117.79221"
       id="text3769"
       sodipodi:linespacing="125%"
       transform="matrix(0.99987407,-0.01586936,0.01586936,0.99987407,0,0)"
       inkscape:transform-center-x="5.5546442"><tspan
         sodipodi:role="line"
         id="tspan3771"
         x="352.47458"
         y="117.79221">PROTEIN</tspan></text>
    <path
       style="fill:none;stroke:#000000;stroke-width:1px;stroke-linecap:butt;stroke-linejoin:miter;stroke-opacity:1"
       d="m 135.36044,520.01179 151.52288,-3.03046 -28.28427,54.54824 -94.95434,4.04061 z"
       id="path3792"
       inkscape:connector-curvature="0" />
    <path
       style="fill:none;stroke:#000000;stroke-width:1px;stroke-linecap:butt;stroke-linejoin:miter;stroke-opacity:1"
       d="m 163.64471,581.6311 -1.01015,60.60915 83.84266,-2.02031 12.12183,-64.64976 z"
       id="path3794"
       inkscape:connector-curvature="0" />
    <path
       sodipodi:type="arc"
       style="fill:#e9f800;fill-opacity:1;stroke:#9cdede;stroke-width:2;stroke-linecap:butt;stroke-linejoin:miter;stroke-miterlimit:4;stroke-opacity:1;stroke-dasharray:none"
       id="path3796"
       sodipodi:cx="209.60666"
       sodipodi:cy="545.26562"
       sodipodi:rx="46.972092"
       sodipodi:ry="16.162441"
       d="m 256.45058,546.4588 a 46.972092,16.162441 0 0 0 0.0568,-0.30237"
       sodipodi:start="0.073891201"
       sodipodi:end="0.055143393"
       sodipodi:open="true" />
    <path
       style="fill:none;stroke:#000000;stroke-width:1px;stroke-linecap:butt;stroke-linejoin:miter;stroke-opacity:1"
       d="m 147.48227,605.87476 -50.507626,65.65991 9.091376,0 48.48732,-59.599 -35.35534,59.599 z"
       id="path3798"
       inkscape:connector-curvature="0" />
    <path
       sodipodi:type="arc"
       style="fill:#e9f800;fill-opacity:1;stroke:#9cdede;stroke-width:2;stroke-linecap:butt;stroke-linejoin:miter;stroke-miterlimit:4;stroke-opacity:1;stroke-dasharray:none"
       id="path3800"
       sodipodi:cx="107.58125"
       sodipodi:cy="667.49408"
       sodipodi:rx="33.840111"
       sodipodi:ry="7.0710678"
       d="m 141.32902,668.01609 a 33.840111,7.0710678 0 1 1 0.0409,-0.13229"
       sodipodi:start="0.073891201"
       sodipodi:end="6.3383287"
       sodipodi:open="true" />
    <path
       sodipodi:open="true"
       transform="matrix(1.2000418,0,0,1.4819172,-111.54133,-155.35868)"
       sodipodi:end="3.5408192"
       sodipodi:start="0.073891201"
       d="M 617.02539,293.86642 A 65.154839,8.586297 0 1 1 492.01715,289.895"
       sodipodi:ry="8.586297"
       sodipodi:rx="65.154839"
       sodipodi:cy="293.23254"
       sodipodi:cx="552.04834"
       id="path3767"
       style="fill:none;stroke:#2f8989;stroke-width:10.67149448;stroke-linecap:round;stroke-miterlimit:4;stroke-opacity:1;stroke-dasharray:none"
       sodipodi:type="arc" />
    <path
       sodipodi:type="arc"
       style="fill:none;stroke:#2f8989;stroke-width:10.67149448;stroke-linecap:round;stroke-miterlimit:4;stroke-opacity:1;stroke-dasharray:none"
       id="path3802"
       sodipodi:cx="552.04834"
       sodipodi:cy="293.23254"
       sodipodi:rx="65.154839"
       sodipodi:ry="8.586297"
       d="M 617.02539,293.86642 A 65.154839,8.586297 0 1 1 492.01715,289.895"
       sodipodi:start="0.073891201"
       sodipodi:end="3.5408192"
       transform="matrix(1.2000418,0,0,1.4819172,-112.55148,-24.03885)"
       sodipodi:open="true" />
    <path
       sodipodi:type="arc"
       style="fill:#2ffdff;fill-opacity:1;stroke:none"
       id="path3804"
       sodipodi:cx="532.3504"
       sodipodi:cy="378.44305"
       sodipodi:rx="3.0304577"
       sodipodi:ry="4.9033833"
       d="m 535.38086,378.44305 a 3.0304577,4.9033833 0 1 1 -6.06091,0 3.0304577,4.9033833 0 1 1 6.06091,0 z"
       transform="matrix(2.7603843,0,0,1.927051,-937.86746,-360.43247)" />
    <path
       sodipodi:type="arc"
       style="fill:#2ffdff;fill-opacity:1;stroke:none"
       id="path3804-0"
       sodipodi:cx="532.3504"
       sodipodi:cy="378.44305"
       sodipodi:rx="3.0304577"
       sodipodi:ry="4.9033833"
       d="m 535.38086,378.44305 a 3.0304577,4.9033833 0 1 1 -6.06091,0 3.0304577,4.9033833 0 1 1 6.06091,0 z"
       transform="matrix(2.7603843,0,0,1.927051,-914.91795,-365.84092)" />
  </g>
</svg>
